<svg width="82" height="80" viewBox="0 0 82 80" fill="none" xmlns="http://www.w3.org/2000/svg">
<path d="M1.76133 39.2928C1.76133 50.089 5.98818 60.4431 13.512 68.0771C21.0358 75.7112 31.2404 80 41.8807 80C52.521 80 62.7255 75.7112 70.2493 68.0771C77.7731 60.4431 82 50.089 82 39.2928L68.8584 39.2928C68.8584 46.5526 66.0161 53.5151 60.9568 58.6485C55.8975 63.7819 49.0356 66.6659 41.8807 66.6659C34.7257 66.6659 27.8638 63.7819 22.8045 58.6485C17.7452 53.515 14.9029 46.5526 14.9029 39.2928H1.76133Z" fill="black"/>
<path d="M75.8329 34.615C75.5499 33.7513 75.17 32.6679 74.6933 31.3648H67.5651L66.4478 34.615H60.8391L67.0958 18.1142H75.319L81.6204 34.615H75.8329ZM73.4196 27.8192C72.8535 26.2282 72.2726 24.6372 71.6767 23.0462L71.1404 21.5689C70.619 22.9478 69.8518 25.0312 68.8388 27.8192H73.4196Z" fill="black"/>
<path d="M55.6546 26.7282C56.5335 27.4555 57.2039 28.2662 57.6657 29.1602C58.1424 30.039 58.6042 31.1224 59.0511 32.4103C59.4235 33.4558 59.7215 34.1907 59.9449 34.615H53.3754C53.286 34.3574 53.1668 33.9104 53.0178 33.274C52.8689 32.577 52.705 31.9936 52.5262 31.5239C52.3624 31.0542 52.124 30.6451 51.8112 30.2966C51.3047 29.7511 50.6716 29.4026 49.9118 29.2511C49.167 29.0844 48.1391 29.0011 46.8281 29.0011V34.615H41.2641C41.3833 31.6754 41.4429 28.9253 41.4429 26.3646C41.4429 23.8039 41.3833 21.0537 41.2641 18.1142H46.8281V24.0463C46.9771 24.0614 47.2006 24.069 47.4985 24.069C49.8224 21.7356 51.5505 19.7506 52.6826 18.1142H59.9226L52.9731 25.16C53.9563 25.5539 54.8502 26.0767 55.6546 26.7282Z" fill="black"/>
<path d="M27.1599 30.4557C32.8208 30.4254 36.9249 30.342 39.4723 30.2057C39.368 30.8269 39.3009 31.4709 39.2712 32.1376C39.2563 32.7891 39.2488 33.6149 39.2488 34.615H21.8864C22.0055 31.6754 22.0651 28.9253 22.0651 26.3646C22.0651 23.8039 22.0055 21.0537 21.8864 18.1142H39.2488V22.228H27.1599V24.4099C27.875 24.4251 28.9326 24.4327 30.333 24.4327C32.7016 24.4327 35.1521 24.3872 37.6846 24.2963V28.2056C35.1521 28.1147 32.7016 28.0692 30.333 28.0692C28.9326 28.0692 27.875 28.0768 27.1599 28.0919V30.4557Z" fill="black"/>
<path d="M20.0886 22.8871C17.7498 22.8114 15.478 22.7659 13.2732 22.7508V34.615H7.68685V22.7508C5.4672 22.7659 3.20285 22.8114 0.893819 22.8871V18.1142H20.0886V22.8871Z" fill="black"/>
<path d="M75.3965 16.5008C75.1135 15.6371 74.7336 14.5537 74.2569 13.2506H67.1287L66.0114 16.5008H60.4027L66.6594 0H74.8826L81.184 16.5008H75.3965ZM72.9832 9.705C72.4171 8.11402 71.8361 6.52304 71.2402 4.93205L70.7039 3.45471C70.1825 4.83356 69.4154 6.91699 68.4024 9.705H72.9832Z" fill="black"/>
<path d="M53.5899 8.04584L60.1148 16.5008H53.6569L50.4392 12.046L47.1991 16.5008H40.7412L47.2661 8.04584L40.9647 0H47.4226L50.4392 4.0911L53.4335 0H59.8913L53.5899 8.04584Z" fill="black"/>
<path d="M34.6552 16.5008C34.3722 15.6371 33.9923 14.5537 33.5156 13.2506H26.3874L25.2701 16.5008H19.6614L25.9181 0H34.1413L40.4427 16.5008H34.6552ZM32.2419 9.705C31.6758 8.11402 31.0949 6.52304 30.499 4.93205L29.9627 3.45471C29.4413 4.83356 28.6741 6.91699 27.6611 9.705H32.2419Z" fill="black"/>
<path d="M12.8487 8.04584L19.3735 16.5008H12.9157L9.69795 12.046L6.45785 16.5008H0L6.52488 8.04584L0.223455 0H6.6813L9.69795 4.0911L12.6922 0H19.1501L12.8487 8.04584Z" fill="black"/>
</svg>
